<?xml version="1.0" encoding="UTF-8"?>
<svg id="Layer_1" xmlns="http://www.w3.org/2000/svg" version="1.1" viewBox="0 0 1490 247">
  <!-- Generator: Adobe Illustrator 29.3.1, SVG Export Plug-In . SVG Version: 2.1.0 Build 151)  -->
  <defs>
    <style>
      .st0 {
        fill: #fdfdfe;
      }

      .st1 {
        fill: #328fde;
      }

      .st2 {
        font-family: calendarnotetfb, 'calendar note tfb';
        font-size: 290px;
      }

      .st3 {
        fill: #ff7900;
      }

      .st4 {
        fill: #6565ed;
      }

      .st5 {
        fill: #fff;
      }

      .st6 {
        fill: #00aa27;
      }

      .st7 {
        fill: #ff9700;
      }

      .st8 {
        fill: #20a1d8;
      }

      .st9 {
        fill: #4680e3;
      }
    </style>
  </defs>
  <text class="st2" transform="translate(386.1 237.8)"><tspan class="st3" x="0" y="0">D</tspan><tspan x="169.8" y="0">-EVO</tspan><tspan x="866" y="0">L</tspan></text>
  <path class="st5" d="M141,102v2h-18.5c-.2,0-1.6-1.4-1.5-2h20Z"/>
  <g id="LwvZQd.tif">
    <g>
      <path class="st3" d="M286.5,172.1c0,22.3,0,44.6,0,66.9h-149.3c-.4-1.4-1.6-9.2-2.2-9.6s-6.5-2.3-7-2.2c-1.7.3-7.2,5-8.2,4.9l-15.2-14.3c-.5-.4-.4-.6-.2-1.1.7-1.8,4.9-5.7,5-7.6s-2.1-6-2.3-6.3c-.5-.6-8.7-1.5-10.1-2.1v-21.4c2.5-.6,7.2-.7,9.5-1.7s1.3-1.5,1.5-2c1.5,1.9,5.4.5,7.7.9-1,2.4-1.5,5.2-2.5,7.7-2.1.5-5.6.5-7.5,1.3s-.5.1-.6.8c-.1,1,0,7.5.2,8,1.5,1.1,6.8.9,7.8,1.9s1.7,5,2.3,6.3,3.9,6.2,3.2,7.6-4.7,4.6-3.7,6.5,5.7,5.5,6.2,5.5c2-.5,5.6-4.3,7.4-3.9s4.9,2.5,6.7,3.2,5.9,1.5,6.5,2c1.2,1.1,1.1,6.9,2.1,7.5l8.8.2,2-7.8c3.6.4,11.7-5.2,13.9-5.3s5.7,4.4,7.5,4,5.9-5.3,6-5.7c.3-1.3-3.6-5-4.1-6.5s2.2-4.8,2.9-6.4c1-2.3,1.8-4.8,2.3-7.2,2.8-.8,5.6-1.4,8.5-1.5v-8.8c-.2-1-7.2-1.2-8.2-1.9s-2.7-7.9-3.3-9.3c2.7-.6,5.4-.5,8.1-.5.3.7.9,2.3,1.2,2.7,1,1.3,8.3,1.8,10.2,2.3v21.1c-.2.8-10.1,1.7-10.6,2.4s-.3,2.1-.7,2.9-1.7,2.6-1.6,3.3c.2,1.6,5.5,6.7,5.1,8.2-.6,2.2-12.7,10.6-13.8,14h29.2c0-17.7,0-35.5,0-53.2h8.1c0,17.7,0,35.5,0,53.2h15.8c0-17,0-34,0-51h7.7c0,17-.3,34.1.5,51h7.7c0-19.3,0-38.5,0-57.8h7.7c0,6,.4,12,.5,18,.1,13.3-.1,26.6,0,39.8h23.4c0-19.7,0-39.4,0-59.2h7.7ZM175,231.3c-.9-.9-6.1-4.5-6.9-4.5s-8.2,2.9-7,4.5h13.9Z"/>
      <path class="st6" d="M286.5,114.8c0,8.8,0,17.6,0,26.4h6.7c0,0,0-.7.5-1.1,4.6-4.7,7.7-10.4,13.7-13.8,10.5-5.9,23-3.1,34.6-3.7v8.2c-2.4,8.4-7.6,15.8-16.1,19.5-1.6.7-6.5,2.3-8.1,2.3h-11.2v-7.3h7.4c.4,0,3.6-.4,4.2-.6,7.4-1.4,13.9-7.3,15.2-14.5h-15.6c-.3,0-4.6,1.6-5.2,1.9-6.6,3.1-11.1,11.9-16.3,16.8h-17.5c0-11.4,0-22.8,0-34.1h7.7Z"/>
      <path class="st8" d="M229.5,6c12.1,2.1,13,19.7,1,22.1s-7.3-.7-9.3.3c-6.7,6.8-14.8,13.1-21.4,20-2.3-.9-5-.4-7.4-.5s-1.9.5-1.7-.9l25.6-24.6c-2.4-7.5.6-13.7,8.4-16.4h4.8ZM223.5,15.7c-1.2,2.7,2.3,6.6,5.8,4.8s1.7-8.3-3.6-6.6-2.2,1.6-2.2,1.7Z"/>
      <path class="st9" d="M121.4,76.5c-1.8,5.8-3.7,11.6-5.3,17.5,0,1.6,2.4,2.8,3.3,4.6,7.6,14.9-17.3,23.7-22.4,7.5v-5c2-4.9,5.7-8.2,11.4-8.7,1.3-5.2,2.9-10.4,4.5-15.6s.8-1.1.8-1.2c1.5,1.9,5.4.5,7.7.9ZM111.7,106.4c2.5-2.4.4-6.7-2.9-6.5-7.6.4-2.4,11.5,2.9,6.5Z"/>
      <path class="st8" d="M172.1,21c0,2.4,0,4.9,0,7.3h-8.1c0-2.4,0-4.9,0-7.3,2.7,0,5.4,0,8.1,0Z"/>
      <path class="st8" d="M172.1,6v7.7c-2.7,0-5.4,0-8.1,0v-7.7h8.1Z"/>
      <path class="st8" d="M164,13.7c0,2.4,0,4.9,0,7.3-2.5,0-5.1,0-7.7,0v-7.3c2.5,0,5.1,0,7.7,0Z"/>
      <path class="st8" d="M172.1,13.7c2.5,0,5.1,0,7.7,0v7.3c-2.5,0-5.1,0-7.7,0,0-2.4,0-4.9,0-7.3Z"/>
      <path class="st9" d="M326.2,88.8c0,2.4,0,4.9,0,7.3-2.7,0-5.4,0-8.1,0l.5-7.3c2.5,0,5.1,0,7.6,0Z"/>
      <path class="st9" d="M326.2,88.8c0-2.6,0-5.2,0-7.7h7.7c0,2.6,0,5.2,0,7.7-2.5,0-5.1,0-7.7,0Z"/>
      <path class="st9" d="M342,88.8v7.3h-8.1c0-2.4,0-4.9,0-7.3h8.1Z"/>
      <path class="st9" d="M333.9,96.1c0,2.6,0,5.2,0,7.7h-7.7c0-2.6,0-5.2,0-7.7,2.5,0,5.1,0,7.7,0Z"/>
      <polygon class="st4" points="342 96.6 341.5 96.1 342 96.1 342 96.6"/>
      <path class="st7" d="M108,175.7c.3-.6,1.5-4.2,1.4-4.7-.4-2.4-6-6.1-4.3-8.7,2.7-1.6,12.8-13.3,14.7-13.8s6.9,4.7,8.6,4.9,6.1-2.2,6.4-2.4c1.4-1.1,1.8-9.6,2.7-9.8h22.2c0,0,2,10,2,10,2-.3,5.1,2.2,6.5,2.3s7.1-5.6,9.2-4.7c1.8,2.6,14.3,12.4,14.8,14.2s-4.8,6.6-5.1,8.2,1.1,2.8,1.3,3.3c-2.7,0-5.5-.2-8.1.5-.6-1.3-2.6-2.7-2.3-4.2s4.6-5.5,4.2-6.8-5.3-5.4-5.7-5.6c-1.9-.8-6,4.2-8.3,3.8s-4.2-2.3-5.6-2.9-7.2-1.9-7.7-2.3c-.8-.6-1.1-6.6-2-7.9h-9.1c-.7.6-1.4,7.6-2,8.1s-6.2,1.6-7.6,2.1-5.3,2.9-6,3c-2.1.2-6.2-4.9-8.1-3.7s-5.3,5-5.4,5.4c-.5,1.7,3.9,5.4,4.1,6.8s-2.7,4.9-3.3,6.1c-2.3-.4-6.2,1-7.7-.9Z"/>
      <path class="st6" d="M254.9,87.9c0,5.3,0,10.6,0,15.9h-17.5c-5.7-5.7-10-14.5-18-17.5s-5.3-1.6-6.9-1.6h-12.2c.3,7.1,8.6,14,15.7,14.9s7.5-.4,10.4.1,1.2.4,1.2.7v7.1h-11.7c-.9,0-5.5-1.4-6.7-1.8-11.7-4.2-18.6-16.5-17.5-28.2h24.2c6.6,0,14.7,6.7,18.9,11.1s5.5,7.1,6.5,7.4c1.6.5,4.1-.1,5.9,0,0-2.7,0-5.5,0-8.2h7.7Z"/>
      <path class="st8" d="M242.5,48.3c7.9-12.2,15.5-24.8,23.5-37l1.1-.8c5.5,8.4,11.1,16.8,16.5,25.2s6.6,10.9,10,16.2c-2.9,0-5.8-.2-8.6.5-5.9-9.2-11.9-18.3-17.9-27.3l-1.1.8c-4.7,7.8-10,15.3-14.9,22.9-2.9-.1-5.8.4-8.6-.5Z"/>
      <path class="st3" d="M207.5,178c0-8.5,0-17,0-25.5h-17.2l29.7-28.5c.5-.4.9-.2,1.4,0s5,4.5,4.6,5.2l-16.1,15.3c1.6.8,5.3-.8,5.7,1.4,0,10.7,0,21.4,0,32.1h-8.1Z"/>
      <path class="st1" d="M190.8,47c-.3,1.4.7.9,1.7.9,2.4,0,5.2-.4,7.4.5-.1.1-.1.8-.5,1.1-.9,1-4,3.3-4.2,4.2-1.1,3.4,2,5.8-1.3,11-6.1,9.6-22,4.9-21.8-6.3-8.1-2.3-16-5.2-24-7.9s-1.1-.7-1.3-.8c5.2-1,10.8-.3,16.1-.5s1.9.5,1.7-.9c.3.1,1,0,1.5.1,1.3.4,8.2,3.1,8.7,3s1.7-1.6,2.5-2.1c2.7-1.6,5.3-2.2,8.5-1.9s2.3,1.8,5.1-.5ZM183.5,54.8c-5,.6-4.3,8.1.8,7.6s4.3-8.3-.8-7.6Z"/>
      <path class="st8" d="M121.4,49.7c.5-1.6-1-1.4-1.7-2.3-11.8-15.8,14.3-27.3,20.3-10.7s.5,3.2.6,3.3c.4.4,9.7,3,11.3,3.6,4.2,1.5,8.4,3.4,12.5,4.7.3,1.4-.7.9-1.7.9-5.3.2-10.9-.5-16.1.5-1.1-.4-8.3-2.7-8.8-2.7s-2.7,2.2-3.8,2.7-2.1.5-3.2.8c-2.5-1.9-6.6-.5-9.6-.9ZM125.9,37.1c-2.8,2.4-.7,8,4.3,6.1,5.6-2.2.4-10.1-4.3-6.1Z"/>
      <path class="st1" d="M251.1,48.8c-2.9,4.5-5.7,9.1-8.6,13.7h12.4c0,8.5,0,17,0,25.5h-7.7c0-6.1,0-12.1,0-18.2h-18.7l10.8-17.3c.7-1.4,2.3-2.9,3.1-4.1,2.8.8,5.7.3,8.6.5Z"/>
      <path class="st1" d="M293.7,52c1.7,2.6,3.8,5.1,5.5,7.8s4.3,6.5,6,10h-17.9c-.5,0-.7,1.1-.7,1.6-.5,4.1,0,10,0,14.4h-7.7c0-7.7,0-15.5,0-23.2h12.4c-1.9-3.4-4.1-6.7-6.2-10,2.8-.7,5.7-.4,8.6-.5Z"/>
      <path class="st3" d="M254.9,128.4c0,15,0,30,0,45.1h-7.7c0-15,0-30,0-45.1h7.7Z"/>
      <path class="st3" d="M231.5,180.3c0-11.7,0-23.4,0-35h7.7c0,11.7,0,23.4,0,35h-7.7Z"/>
      <path class="st1" d="M131,50.6c-.4.1-1.8.5-1.9.8-2.2,8.5-5.1,16.8-7.6,25.2-2.3-.4-6.2,1-7.7-.9.3-.9.3-2.2.6-3.3,2.3-7.6,4.7-15.1,7-22.7,3,.4,7.1-.9,9.6.9Z"/>
      <path class="st9" d="M286.5,85.6c0,9.7,0,19.4,0,29.1h-7.7c0-9.7,0-19.4,0-29.1h7.7Z"/>
      <path class="st3" d="M247.3,128.4c0-5.8,0-11.5,0-17.3h7.7c0,5.8,0,11.5,0,17.3h-7.7Z"/>
      <path class="st3" d="M278.8,172.1c0-5.3,0-10.6,0-15.9h7.7c0,5.3,0,10.6,0,15.9h-7.7Z"/>
      <path class="st4" d="M191.7,122.5c.2,0,.3,0,.5,0-.2,1.2.5,7.7-.7,7.7h-7.9v-7.7c.2,0,.3,0,.5,0,2.5,0,5.1,0,7.7,0Z"/>
      <path class="st9" d="M184.1,114.8c0-2.4,0-4.9,0-7.3h7.7c0,2.4,0,4.9,0,7.3-2.5,0-5.1,0-7.7,0Z"/>
      <path class="st9" d="M184.1,114.8c0,2.6,0,5.2,0,7.7-.2,0-.3,0-.5,0-2,0-5.4.3-7.2,0l-.5-.5c-.4-2.1.3-5.1,0-7.3,2.7,0,5.4,0,8.1,0Z"/>
      <path class="st9" d="M191.7,114.8c2.7,0,5.4,0,8.1,0v7.7c-2.5,0-5.1,0-7.7,0s-.3,0-.5,0c0-2.6,0-5.2,0-7.7Z"/>
      <path class="st3" d="M271.2,224h-8.1v-7.7h7.4c0,0,.7.6.7.7v7.1Z"/>
      <path class="st9" d="M144.4,81.1c0,2.6,0,5.2,0,7.7,2.7,0,5.4,0,8.1,0,0-2.6,0-5.2,0-7.7,2.5,0,5.1,0,7.7,0v7.7c-2.5,0-5.1,0-7.7,0,0,2.4,0,4.9,0,7.3h-8.1c0-2.4,0-4.9,0-7.3-1.5,0-7.4.3-7.9-.4s-.4-6.7.2-7.1,6.3-.2,7.7-.2Z"/>
      <path class="st1" d="M144.4,81.1c0-2.4,0-4.9,0-7.3h8.1c0,2.4,0,4.9,0,7.3-2.7,0-5.4,0-8.1,0Z"/>
      <rect class="st3" x="263" y="171.2" width="7.7" height="7.7"/>
      <rect class="st3" x="263" y="186.2" width="7.7" height="7.7"/>
      <rect class="st3" x="263" y="201.2" width="7.7" height="7.7"/>
      <rect class="st9" x="263" y="107.5" width="7.7" height="7.3"/>
      <rect class="st9" x="263" y="92.5" width="7.7" height="7.3"/>
      <rect class="st1" x="263" y="77.4" width="7.7" height="7.3"/>
      <rect class="st1" x="263" y="62.4" width="7.7" height="7.3"/>
      <path class="st4" d="M176.4,122.5c-.4,0-.4-.1-.5-.5l.5.5Z"/>
      <path class="st0" d="M223.5,15.7c0-.1,2-1.7,2.2-1.7"/>
      <path class="st0" d="M184.3,62.4"/>
      <path class="st0" d="M125.9,37.1"/>
      <path class="st7" d="M164,212.1c-.3.4-7.1,3.1-8.2,3.4-21.5,5.3-40.6-13.6-33.6-33.8s2.8-6.2,3.1-6.4c.8-.6,6.4,3.2,6.6,3.9s-1.9,4.1-2.3,5.4c-4.5,14.2,8.9,27.4,23.9,23.6,1.3-.3,5.9-2.6,6.4-2.5.7.2,4.7,5.5,4.1,6.3Z"/>
      <path class="st7" d="M175,183h-8.1c-3.4-8.3-13.7-12.9-22.6-11.3s-5,2.5-7.9,2.5l-3.9-5.8c15.8-10,37.5-3,42.6,14.6Z"/>
      <path class="st7" d="M175,183c2.2,7.7.7,15.8-4.1,22.3-.8-.6-5.9-3.6-6-4-.3-1.2,2.3-5.2,2.7-6.9.7-3.1.5-8.5-.7-11.4h8.1Z"/>
    </g>
  </g>
</svg>