<?xml version="1.0" encoding="UTF-8"?>
<svg id="Layer_1" xmlns="http://www.w3.org/2000/svg" version="1.1" viewBox="0 0 286 203">
  <!-- Generator: Adobe Illustrator 29.3.1, SVG Export Plug-In . SVG Version: 2.1.0 Build 151)  -->
  <defs>
    <style>
      .st0 {
        fill: #fdfdfe;
      }

      .st1 {
        fill: #328fde;
      }

      .st2 {
        fill: #ff7900;
      }

      .st3 {
        fill: #6565ed;
      }

      .st4 {
        fill: #fff;
      }

      .st5 {
        fill: #00aa27;
      }

      .st6 {
        fill: #ff9700;
      }

      .st7 {
        fill: #20a1d8;
      }

      .st8 {
        fill: #4680e3;
      }
    </style>
  </defs>
  <path class="st4" d="M58.2,88.7v1.6h-20c-.2,0-1.7-1.1-1.6-1.6h21.6Z"/>
  <g id="LwvZQd.tif">
    <g>
      <path class="st2" d="M215.6,143.9c.1,17.5,0,35.1,0,52.6H54.1c-.4-1.1-1.7-7.2-2.4-7.6s-7-1.8-7.6-1.7c-1.8.2-7.8,4-8.8,3.8l-16.4-11.2c-.5-.3-.5-.5-.2-.9.7-1.4,5.3-4.4,5.5-5.9s-2.3-4.7-2.5-4.9c-.5-.5-9.4-1.2-10.9-1.7v-16.8c2.8-.5,7.8-.6,10.2-1.3s1.4-1.2,1.7-1.6c1.6,1.5,5.8.4,8.3.7-1.1,1.9-1.7,4.1-2.7,6-2.3.4-6.1.4-8.1,1s-.6,0-.7.6c-.1.8-.1,5.9.3,6.3,1.6.9,7.3.7,8.5,1.5s1.8,4,2.5,4.9,4.2,4.9,3.5,6-5,3.6-4.1,5.1,6.2,4.3,6.7,4.3c2.2-.4,6-3.4,8-3.1s5.3,2,7.2,2.5,6.4,1.2,7,1.6c1.3.9,1.2,5.4,2.3,5.9l9.5.2,2.2-6.1c3.9.3,12.6-4.1,15.1-4.2s6.2,3.4,8.1,3.1,6.4-4.2,6.5-4.5c.4-1-3.9-3.9-4.4-5.1s2.4-3.8,3.2-5c1-1.8,1.9-3.7,2.4-5.6,3-.6,6.1-1.1,9.2-1.1v-6.9c-.3-.8-7.8-1-8.8-1.5s-2.9-6.2-3.6-7.3c2.9-.5,5.8-.4,8.8-.4.4.6,1,1.8,1.3,2.1,1,1,8.9,1.4,11.1,1.8v16.6c-.2.6-10.9,1.3-11.4,1.9s-.4,1.6-.7,2.3-1.8,2-1.7,2.6c.2,1.3,5.9,5.3,5.5,6.4-.6,1.7-13.7,8.3-15,11h31.6c0-13.9,0-27.9,0-41.9h8.8c0,13.9,0,27.9,0,41.9h17.1c0-13.4,0-26.7,0-40.1h8.3c0,13.4-.3,26.8.5,40.1h8.3c0-15.1,0-30.3,0-45.4h8.3c0,4.7.5,9.5.5,14.1.1,10.4-.1,20.9,0,31.3h25.4c0-15.5,0-31,0-46.5h8.3ZM95,190.4c-.9-.7-6.6-3.5-7.4-3.5s-8.9,2.3-7.6,3.5h15Z"/>
      <path class="st5" d="M215.6,98.8c0,6.9,0,13.8,0,20.8h7.2c0,0,0-.6.5-.9,5-3.7,8.4-8.2,14.9-10.9,11.3-4.7,24.9-2.4,37.4-2.9v6.4c-2.6,6.6-8.2,12.4-17.4,15.3-1.7.5-7.1,1.8-8.7,1.8h-12.2v-5.7h8c.5,0,3.8-.3,4.5-.4,8-1.1,15-5.7,16.4-11.4h-16.8c-.3,0-4.9,1.2-5.6,1.5-7.2,2.4-12,9.4-17.7,13.2h-18.9c0-8.9,0-17.9,0-26.8h8.3Z"/>
      <path class="st7" d="M154,13.3c13.1,1.7,14.1,15.5,1.1,17.4-3.3.5-7.9-.6-10.1.2-7.2,5.4-16,10.3-23.1,15.7-2.5-.7-5.4-.3-8-.4s-2.1.4-1.8-.7l27.7-19.3c-2.6-5.9.7-10.8,9-12.9h5.2ZM147.4,20.9c-1.3,2.1,2.5,5.2,6.3,3.8s1.8-6.5-3.9-5.2-2.3,1.3-2.4,1.4Z"/>
      <path class="st8" d="M37.1,68.7c-1.9,4.6-4,9.2-5.7,13.8,0,1.2,2.6,2.2,3.6,3.6,8.2,11.7-18.7,18.6-24.3,5.9v-3.9c2.2-3.9,6.2-6.5,12.4-6.8,1.4-4.1,3.1-8.2,4.9-12.2s.9-.9.9-1c1.6,1.5,5.8.4,8.3.7ZM26.5,92.2c2.7-1.9.5-5.3-3.1-5.1-8.2.3-2.6,9.1,3.1,5.1Z"/>
      <path class="st7" d="M91.9,25.1c0,1.9,0,3.8,0,5.7h-8.8c0-1.9,0-3.8,0-5.7,2.9,0,5.9,0,8.8,0Z"/>
      <path class="st7" d="M91.9,13.3v6.1c-2.9,0-5.9,0-8.8,0v-6.1h8.8Z"/>
      <path class="st7" d="M83.1,19.3c0,1.9,0,3.8,0,5.7-2.8,0-5.5,0-8.3,0v-5.7c2.8,0,5.5,0,8.3,0Z"/>
      <path class="st7" d="M91.9,19.3c2.8,0,5.5,0,8.3,0v5.7c-2.8,0-5.5,0-8.3,0,0-1.9,0-3.8,0-5.7Z"/>
      <path class="st8" d="M258.5,78.4c0,1.9,0,3.8,0,5.7-2.9,0-5.9,0-8.8,0l.5-5.7c2.7,0,5.5,0,8.3,0Z"/>
      <path class="st8" d="M258.5,78.4c0-2,0-4.1,0-6.1h8.3c0,2,0,4.1,0,6.1-2.8,0-5.5,0-8.3,0Z"/>
      <path class="st8" d="M275.6,78.4v5.7h-8.8c0-1.9,0-3.8,0-5.7h8.8Z"/>
      <path class="st8" d="M266.8,84.1c0,2,0,4.1,0,6.1h-8.3c0-2,0-4.1,0-6.1,2.8,0,5.5,0,8.3,0Z"/>
      <polygon class="st3" points="275.6 84.5 275.1 84.1 275.6 84.1 275.6 84.5"/>
      <path class="st6" d="M22.6,146.7c.3-.5,1.6-3.3,1.6-3.7-.4-1.9-6.4-4.8-4.7-6.8,3-1.3,13.9-10.5,15.9-10.9s7.4,3.7,9.3,3.8,6.6-1.7,6.9-1.9c1.5-.8,1.9-7.5,2.9-7.7h24s2.2,7.8,2.2,7.8c2.1-.2,5.5,1.7,7,1.8s7.7-4.4,10-3.7c2,2.1,15.4,9.7,16,11.2s-5.2,5.2-5.5,6.4,1.2,2.2,1.4,2.6c-3,0-5.9-.1-8.8.4-.6-1-2.8-2.1-2.5-3.3s4.9-4.3,4.5-5.4-5.8-4.3-6.2-4.4c-2.1-.7-6.5,3.3-8.9,3s-4.5-1.8-6.1-2.3-7.7-1.5-8.3-1.8c-.9-.5-1.2-5.2-2.1-6.2h-9.8c-.8.5-1.5,6-2.1,6.3s-6.7,1.3-8.2,1.7-5.8,2.3-6.5,2.3c-2.3.1-6.7-3.9-8.8-2.9s-5.8,3.9-5.9,4.2c-.5,1.3,4.2,4.2,4.5,5.4s-3,3.8-3.5,4.8c-2.5-.3-6.7.8-8.3-.7Z"/>
      <path class="st5" d="M181.4,77.7c0,4.2,0,8.4,0,12.5h-18.9c-6.1-4.5-10.8-11.4-19.4-13.8s-5.7-1.3-7.5-1.3h-13.2c.4,5.6,9.3,11,17,11.7s8.1-.3,11.2,0,1.3.3,1.3.5v5.5h-12.7c-1,0-6-1.1-7.3-1.4-12.7-3.3-20.1-13-18.9-22.2h26.1c7.1,0,15.9,5.3,20.5,8.8s5.9,5.6,7.1,5.8c1.8.4,4.5,0,6.4,0,0-2.1,0-4.3,0-6.4h8.3Z"/>
      <path class="st7" d="M168,46.5c8.5-9.6,16.7-19.5,25.4-29.1l1.2-.6c6,6.6,12,13.2,17.9,19.8s7.2,8.6,10.9,12.7c-3.1,0-6.3-.2-9.3.4-6.3-7.2-12.8-14.4-19.4-21.5l-1.2.6c-5.1,6.1-10.8,12-16.1,18-3.1-.1-6.3.3-9.3-.4Z"/>
      <path class="st2" d="M130.2,148.5c0-6.7,0-13.4,0-20h-18.6l32.1-22.4c.6-.3,1-.2,1.5,0s5.4,3.5,5,4.1l-17.4,12c1.8.6,5.7-.6,6.2,1.1,0,8.4,0,16.8,0,25.2h-8.8Z"/>
      <path class="st1" d="M112.1,45.5c-.3,1.1.8.7,1.8.7,2.6,0,5.6-.3,8,.4-.1,0-.1.6-.5.9-1,.7-4.3,2.6-4.6,3.3-1.2,2.7,2.2,4.6-1.4,8.7-6.6,7.6-23.8,3.9-23.6-4.9-8.8-1.8-17.3-4.1-26-6.2s-1.2-.6-1.4-.6c5.6-.7,11.6-.2,17.4-.4s2.1.4,1.8-.7c.3,0,1.1,0,1.7,0,1.4.3,8.9,2.4,9.4,2.4s1.9-1.3,2.7-1.7c2.9-1.3,5.7-1.7,9.2-1.5s2.5,1.5,5.5-.4ZM104.2,51.6c-5.4.5-4.7,6.4.9,6,5.6-.4,4.6-6.5-.9-6Z"/>
      <path class="st7" d="M37.1,47.6c.5-1.2-1-1.1-1.8-1.8-12.8-12.4,15.4-21.5,21.9-8.4.3.6.5,2.5.6,2.6.4.3,10.5,2.4,12.2,2.8,4.5,1.2,9.1,2.7,13.6,3.7.3,1.1-.8.7-1.8.7-5.7.1-11.8-.4-17.4.4-1.2-.3-9-2.2-9.5-2.1s-3,1.8-4.1,2.2-2.3.4-3.5.7c-2.7-1.5-7.1-.4-10.3-.7ZM41.9,37.7c-3,1.9-.7,6.3,4.6,4.8,6-1.7.4-8-4.6-4.8Z"/>
      <path class="st1" d="M177.3,46.9c-3.1,3.6-6.2,7.2-9.3,10.7h13.5c0,6.7,0,13.4,0,20h-8.3c0-4.8,0-9.5,0-14.3h-20.2l11.7-13.6c.8-1.1,2.5-2.3,3.3-3.3,3,.7,6.2.3,9.3.4Z"/>
      <path class="st1" d="M223.3,49.4c1.8,2,4.1,4,5.9,6.1s4.7,5.1,6.5,7.8h-19.4c-.6,0-.7.9-.8,1.2-.5,3.2,0,7.9,0,11.3h-8.3c0-6.1,0-12.2,0-18.2h13.5c-2.1-2.7-4.4-5.3-6.7-7.9,3-.5,6.2-.3,9.3-.4Z"/>
      <path class="st2" d="M181.4,109.5c0,11.8,0,23.6,0,35.4h-8.3c0-11.8,0-23.6,0-35.4h8.3Z"/>
      <path class="st2" d="M156.1,150.3c0-9.2,0-18.4,0-27.6h8.3c0,9.2,0,18.4,0,27.6h-8.3Z"/>
      <path class="st1" d="M47.4,48.3c-.4,0-2,.4-2.1.6-2.4,6.7-5.5,13.2-8.3,19.8-2.5-.3-6.7.8-8.3-.7.3-.7.3-1.7.7-2.6,2.5-5.9,5.1-11.9,7.6-17.8,3.2.3,7.7-.7,10.3.7Z"/>
      <path class="st8" d="M215.6,75.9c0,7.6,0,15.3,0,22.9h-8.3c0-7.6,0-15.3,0-22.9h8.3Z"/>
      <path class="st2" d="M173.1,109.5c0-4.5,0-9.1,0-13.6h8.3c0,4.5,0,9.1,0,13.6h-8.3Z"/>
      <path class="st2" d="M207.3,143.9c0-4.2,0-8.4,0-12.5h8.3c0,4.2,0,8.4,0,12.5h-8.3Z"/>
      <path class="st3" d="M113.1,104.9c.2,0,.3,0,.5,0-.2.9.6,6.1-.8,6.1h-8.5v-6.1c.2,0,.3,0,.5,0,2.8,0,5.5,0,8.3,0Z"/>
      <path class="st8" d="M104.8,98.8c0-1.9,0-3.8,0-5.7h8.3c0,1.9,0,3.8,0,5.7-2.8,0-5.5,0-8.3,0Z"/>
      <path class="st8" d="M104.8,98.8c0,2,0,4.1,0,6.1-.2,0-.3,0-.5,0-2.2,0-5.8.3-7.8,0l-.5-.4c-.4-1.6.3-4,0-5.7,2.9,0,5.9,0,8.8,0Z"/>
      <path class="st8" d="M113.1,98.8c2.9,0,5.9,0,8.8,0v6.1c-2.8,0-5.5,0-8.3,0s-.3,0-.5,0c0-2,0-4.1,0-6.1Z"/>
      <path class="st2" d="M199,184.7h-8.8v-6.1h8c0,0,.8.5.8.5v5.5Z"/>
      <path class="st8" d="M61.9,72.3c0,2,0,4.1,0,6.1,2.9,0,5.9,0,8.8,0,0-2,0-4.1,0-6.1,2.8,0,5.5,0,8.3,0v6.1c-2.8,0-5.5,0-8.3,0,0,1.9,0,3.8,0,5.7h-8.8c0-1.9,0-3.8,0-5.7-1.6,0-8,.3-8.6-.3s-.4-5.3.3-5.6,6.8-.1,8.3-.2Z"/>
      <path class="st1" d="M61.9,72.3c0-1.9,0-3.8,0-5.7h8.8c0,1.9,0,3.8,0,5.7-2.9,0-5.9,0-8.8,0Z"/>
      <rect class="st2" x="190.2" y="143.1" width="8.3" height="6.1"/>
      <rect class="st2" x="190.2" y="155" width="8.3" height="6.1"/>
      <rect class="st2" x="190.2" y="166.8" width="8.3" height="6.1"/>
      <rect class="st8" x="190.2" y="93" width="8.3" height="5.7"/>
      <rect class="st8" x="190.2" y="81.2" width="8.3" height="5.7"/>
      <rect class="st1" x="190.2" y="69.4" width="8.3" height="5.7"/>
      <rect class="st1" x="190.2" y="57.6" width="8.3" height="5.7"/>
      <path class="st3" d="M96.6,104.9c-.4,0-.4,0-.5-.4l.5.4Z"/>
      <path class="st0" d="M147.4,20.9c0,0,2.1-1.3,2.4-1.4"/>
      <path class="st0" d="M105,57.6"/>
      <path class="st0" d="M41.9,37.7"/>
      <path class="st6" d="M83.1,175.3c-.4.4-7.6,2.4-8.8,2.7-23.3,4.1-43.9-10.7-36.4-26.6s3.1-4.8,3.4-5c.9-.4,6.9,2.5,7.1,3.1s-2.1,3.3-2.5,4.2c-4.8,11.1,9.6,21.5,25.9,18.6s6.3-2,6.9-1.9c.8.1,5.1,4.3,4.5,4.9Z"/>
      <path class="st6" d="M95,152.4h-8.8c-3.7-6.5-14.8-10.2-24.4-8.9-3.3.4-5.5,2-8.6,2l-4.2-4.6c17-7.9,40.6-2.4,46,11.4Z"/>
      <path class="st6" d="M95,152.4c2.4,6,.8,12.4-4.4,17.5-.9-.4-6.4-2.8-6.5-3.1-.3-.9,2.5-4.1,2.9-5.5.8-2.4.5-6.7-.8-9h8.8Z"/>
    </g>
  </g>
</svg>